<?xml version="1.0" encoding="utf-8"?><svg xml:space="preserve" viewBox="0 0 100 100" y="0" x="0" xmlns="http://www.w3.org/2000/svg" id="圖層_1" version="1.1" width="200px" height="200px" xmlns:xlink="http://www.w3.org/1999/xlink" style="width:100%;height:100%;background-size:initial;background-repeat-y:initial;background-repeat-x:initial;background-position-y:initial;background-position-x:initial;background-origin:initial;background-image:initial;background-color:rgb(30, 29, 28);background-clip:initial;background-attachment:initial;animation-play-state:paused" ><g class="ldl-scale" style="transform-origin:50% 50%;transform:rotate(0deg) scale(0.8, 0.8);animation-play-state:paused" ><path fill="#333" d="M84 17H16c-4.963 0-9 4.038-9 9v48c0 4.962 4.037 9 9 9h68c4.963 0 9-4.038 9-9V26c0-4.962-4.037-9-9-9z" style="fill:rgb(51, 51, 51);animation-play-state:paused" ></path>
<path fill="#fff" d="M73.864 41.333H56.136a3 3 0 0 0-2.598 4.501l8.864 15.333a3.001 3.001 0 0 0 5.196 0l8.864-15.333a3 3 0 0 0-2.598-4.501z" style="fill:rgb(255, 255, 255);animation-play-state:paused" ></path>
<metadata xmlns:d="https://loading.io/stock/" style="animation-play-state:paused" ><d:name style="animation-play-state:paused" >dropdown</d:name>
<d:tags style="animation-play-state:paused" >dropup,select,choice,option,menu,dropdown,form</d:tags>
<d:license style="animation-play-state:paused" >free</d:license>
<d:slug style="animation-play-state:paused" >ppx7ky</d:slug></metadata></g><!-- generated by https://loading.io/ --></svg>